<?xml version="1.0" standalone="no"?><!DOCTYPE svg PUBLIC "-//W3C//DTD SVG 1.1//EN" "http://www.w3.org/Graphics/SVG/1.1/DTD/svg11.dtd"><svg t="1684989055956" class="icon" viewBox="0 0 1024 1024" version="1.1" xmlns="http://www.w3.org/2000/svg" p-id="1348" width="128" height="128" xmlns:xlink="http://www.w3.org/1999/xlink"><path d="M60.7967763 475.96005452c-25.68404385 9.40320237-45.89947259 27.87949985-45.8994726 49.75153303v101.90605275c0 20.91933392 18.84766815 39.354368 45.8994726 49.79279645 9.73452325 3.64574341 20.50548622 2.07166578 28.99725273-4.3083852a35.70862459 35.70862459 0 0 0 13.67032415-28.04455347V508.31299318a35.70862459 35.70862459 0 0 0-13.67032415-28.04455348 30.07374222 30.07374222 0 0 0-28.99725273-4.30838518z m906.13471762 7.45654045a30.07374222 30.07374222 0 0 0-28.91472592 4.34964858 35.70862459 35.70862459 0 0 0-13.71158755 27.96202667v139.85139675c-26.51173925 17.68865185-55.92405333 29.99242903-86.78665482 36.28752592l-131.23462638 4.43338903a34.92097897 34.92097897 0 0 0-19.8003674 7.45654045 19.55157333 19.55157333 0 0 0-6.46257777 14.45796978c0 10.89475318 12.92515555 19.88410785 27.58944237 19.88410785l129.9093428-4.97102697a292.21410133 292.21410133 0 0 0 125.31090016-49.75153303c27.09185422-9.44567941 45.940736-27.87949985 45.940736-49.71026963v-101.49220504c3.14815525-20.91933392-15.61698608-39.31310459-41.75614104-48.75757036h-0.08374045z m-553.10927644 26.34668562h5.46861511c23.44732445 0 35.3773037 10.89475318 35.37730371 31.89661393v56.62795851c0 21.4181357-11.92997925 31.85777778-35.3360403 31.85777779h-5.50987852c-23.85995852 0-35.3360403-10.35711525-35.3360403-31.81530074v-56.71169897c0-20.87807052 11.43360475-31.89661392 35.2947769-31.89661393m214.37553777 0h5.55114193c23.40484741 0 35.33482667 10.93480297 35.33482667 31.89661393V598.28906667c0 21.41692208-11.92997925 31.85535052-35.29356327 31.85535051h-5.59240533c-23.85995852 0-35.29477689-10.35590163-35.29477688-31.8140871v-56.71169897c0-20.87807052 11.43360475-31.89661392 35.29477688-31.89661393" fill="#2C2C2C" p-id="1349"></path><path d="M666.10183585 180.59779792h-274.40165926c-143.28839585 0-259.817472 151.16121125-259.817472 302.81879705v127.00998162c-2.11292918 149.29586252 114.16735289 272.03872237 259.81868563 274.40044563h274.40044563c91.34262045-2.73430755 175.02116978-52.77589808 222.24592593-132.85118104a5.799936 5.799936 0 0 0 0-8.20170903 4.63970608 4.63970608 0 0 0-4.22464475 0L855.45718518 748.62136889h-93.95313777a183.80420741 183.80420741 0 0 1-59.65232356 9.11314489H382.29940148c-69.88443497-2.81683437-126.4723437-59.03094518-131.40089363-130.48945778-4.92976355-71.45851259 43.37148208-135.33669452 112.13816415-148.22058667 7.95291497-86.78422755 82.43579259-151.07625718 167.27457185-144.36609896h14.58176c84.83877925-8.11918222 160.31561955 55.13762133 169.13870697 141.96432593v2.90057481c61.39266845 8.20170903 109.48759703 58.28456297 116.52907615 121.29257244v15.40945542-2.44303645c0 13.38026667-1.73913125 26.67679289-5.1360806 39.51942163 4.68096948 3.35568592 12.71762489 0 19.22146608 0a203.35578075 203.35578075 0 0 0 42.25372918-6.2137837c13.21399941-4.47465245 24.93766163-12.26251378 34.3821274-22.65967882V483.37533155c4.22585837-151.61632237-111.84810667-302.77632-255.17897955-302.77632z" fill="#725FAF" p-id="1350"></path></svg>