<svg version="1.1" id="Layer_1" xmlns="http://www.w3.org/2000/svg" x="0" y="0" width="1200" height="1200" style="enable-background:new 0 0 1200 1200" xml:space="preserve"><style>.st2{fill:#e8615d}.st3{fill:#afbece}.st4{fill:none;stroke:#000;stroke-miterlimit:10}</style><g id="illustration_1_"><path style="fill:#f0aeb6" d="m625.1 158-60.5 60.4 60.3 60.3 61.5-61.5z"/><path d="M420.4 498.2h403s2.9-209.8-195.4-209.8-207.6 209.8-207.6 209.8z" style="fill:#39262b"/><path class="st2" d="M535.4 498.2h77.9v407.1h-77.9zM635.1 498.2H713v407.1h-77.9z"/><circle class="st3" cx="575.5" cy="939.4" r="24.5"/><circle class="st3" cx="675.6" cy="939.4" r="24.5"/></g><g id="skeleton_1_"><circle id="rightShoulder" cx="518.6" cy="354.1" r="8.2"/><circle id="rightElbow" cx="415.1" cy="354.2" r="8.2"/><circle id="rightWrist" transform="rotate(-11.304 251.758 360.606)" cx="251.7" cy="360.6" r="8.2"/><circle id="rightHip" cx="568.9" cy="569.9" r="8.2"/><circle id="rightKnee" cx="575.3" cy="730.1" r="8.2"/><circle id="rightAnkle" cx="575.3" cy="938.1" r="8.2"/><circle id="leftShoulder" cx="731.5" cy="354.1" r="8.2"/><circle id="leftElbow" cx="835.9" cy="353.8" r="8.2"/><circle id="leftWrist" cx="999.3" cy="360.1" r="8.2"/><circle id="leftHip" cx="685.3" cy="569.1" r="8.2"/><circle id="leftKnee" cx="685.3" cy="730.1" r="8.2"/><circle id="leftAnkle" cx="685.3" cy="938.1" r="8.2"/><path class="st4" d="m518.5 354.4 50.3 215.8 116.4-.8 46.2-215zM517.5 354.4H414.8l-163.3 6.3M732.9 354h103.2l163.3 6.4M568.8 570.2l6.4 160.2v208M685.2 569.4v369"/><circle id="rightEye0" cx="594.4" cy="220" r=".8"/><circle id="rightBrow1" cx="592.2" cy="208.1" r=".8"/><circle id="rightBrow4" cx="615.5" cy="211.1" r=".8"/><circle id="nose1" cx="623.4" cy="221" r=".8"/><circle id="rightBrow3" cx="605.7" cy="207.1" r=".8"/><circle id="rightEye1" cx="599.6" cy="216.3" r=".8"/><circle id="rightBrow0" cx="588.2" cy="211.8" r=".8"/><circle id="rightBrow2" cx="598.4" cy="207.1" r=".8"/><circle id="rightEye5" cx="599.6" cy="222.3" r=".8"/><circle id="rightEye2" cx="605.9" cy="216.3" r=".8"/><circle id="rightEye3" cx="611.1" cy="220.5" r=".8"/><circle id="nose0" cx="623.4" cy="215.2" r=".8"/><circle id="nose3" cx="623.4" cy="233.6" r=".8"/><circle id="rightNose0" cx="612.7" cy="238.1" r=".8"/><circle id="rightMouthCorner" cx="606.7" cy="260.2" r=".8"/><circle id="rightNose1" cx="617.9" cy="238.1" r=".8"/><circle id="rightUpperLipTop0" cx="613.6" cy="256.8" r=".8"/><circle id="nose2" cx="623.4" cy="226.5" r=".8"/><circle id="nose4" cx="623.4" cy="238.9" r=".8"/><circle id="upperLipTopMid" cx="624.2" cy="256.6" r=".8"/><circle id="rightUpperLipTop1" cx="620.1" cy="255.7" r=".8"/><path id="rightMiddleLip" d="M610.3 259.7c.4 0 .8.4.8.8s-.4.8-.8.8-.8-.4-.8-.8.4-.8.8-.8z"/><circle id="lowerLipBottomMid" cx="624.2" cy="269.8" r=".8"/><circle id="upperLipBottomMid" cx="624.2" cy="260.2" r=".8"/><circle id="lowerLipTopMid" cx="624.2" cy="263.3" r=".8"/><circle id="rightUpperLipBottom1" cx="620.3" cy="259.7" r=".8"/><circle id="rightLowerLipTop0" cx="620.3" cy="262.6" r=".8"/><circle id="rightLowerLipBottom1" cx="620.1" cy="269.3" r=".8"/><circle id="rightLowerLipBottom0" cx="613.1" cy="266.5" r=".8"/><circle id="rightEye4" cx="605.9" cy="221.5" r=".8"/><circle id="jawMid" cx="624.2" cy="295.6" r=".8"/><circle id="rightJaw7" cx="609.2" cy="292.4" r=".8"/><circle id="rightJaw6" cx="599.2" cy="285.7" r=".8"/><circle id="rightJaw5" cx="587.6" cy="273.2" r=".8"/><circle id="rightJaw4" cx="580.8" cy="253.2" r=".8"/><circle id="rightJaw3" cx="580" cy="231.5" r=".8"/><circle id="rightJaw2" cx="580" cy="222" r=".8"/><circle id="rightJaw1" cx="580.8" cy="210.3" r=".8"/><circle id="rightJaw0" cx="583.3" cy="201" r=".8"/><circle id="topMid" cx="624.4" cy="174.9" r=".8"/><circle id="leftTop0" cx="644.1" cy="177.4" r=".8"/><circle id="leftTop1" cx="656.7" cy="186.9" r=".8"/><circle id="leftEye0" cx="654" cy="220" r=".8"/><circle id="leftBrow1" cx="655.9" cy="208.5" r=".8"/><circle id="leftBrow4" cx="632.3" cy="210.6" r=".8"/><circle id="leftBrow3" cx="642.3" cy="207.4" r=".8"/><circle id="leftEye1" cx="648.8" cy="216.3" r=".8"/><circle id="leftBrow0" cx="659.9" cy="211.4" r=".8"/><circle id="leftBrow2" cx="649.6" cy="207" r=".8"/><circle id="leftEye5" cx="648.8" cy="222.3" r=".8"/><circle id="leftEye2" cx="642.5" cy="216.3" r=".8"/><circle id="leftEye3" cx="637.3" cy="220.5" r=".8"/><circle id="leftNose0" cx="633.8" cy="238.1" r=".8"/><circle id="leftMouthCorner" cx="641.7" cy="260.2" r=".8"/><circle id="leftNose1" cx="629" cy="238.1" r=".8"/><circle id="leftUpperLipTop0" cx="634.8" cy="256.8" r=".8"/><circle id="leftUpperLipTop1" cx="628.4" cy="255.7" r=".8"/><path id="leftMiddleLip" d="M638.1 259.7c.4 0 .8.4.8.8s-.4.8-.8.8-.8-.4-.8-.8.4-.8.8-.8z"/><circle id="leftUpperLipBottom1" cx="628.2" cy="259.7" r=".8"/><circle id="leftLowerLipTop0" cx="628.2" cy="262.6" r=".8"/><circle id="leftLowerLipBottom1" cx="628.4" cy="269.3" r=".8"/><circle id="leftLowerLipBottom0" cx="635.3" cy="266.5" r=".8"/><circle id="leftEye4" cx="642.5" cy="221.5" r=".8"/><circle id="leftJaw7" cx="639" cy="292.8" r=".8"/><circle id="leftJaw6" cx="649" cy="286.1" r=".8"/><circle id="leftJaw5" cx="660.6" cy="273.5" r=".8"/><circle id="leftJaw4" cx="667.4" cy="253.5" r=".8"/><circle id="leftJaw3" cx="668.2" cy="231.9" r=".8"/><circle id="leftJaw2" cx="668.2" cy="222.3" r=".8"/><circle id="leftJaw1" cx="667.4" cy="210.6" r=".8"/><circle id="leftJaw0" cx="664.9" cy="201.4" r=".8"/><path class="st4" d="m624.2 174.9-19.8 2.5-12.5 9.5-8.6 14.1-2.5 9.3-.8 11.7v9.5l.8 21.7 6.8 20 11.6 12.5 10 6.7 15 3.2 14.8-2.8 10-6.7 11.6-12.6 6.8-20 .8-21.6v-9.6l-.8-11.7-2.5-9.2-8.2-14.5-12.6-9.5-19.9-2.5"/><path class="st4" d="m588.2 211.8 4-3.7 6.2-1h7.3l9.8 4M594.4 220l5.2-3.7h6.3l5.2 4.2-5.2 1-6.3.8zM612.7 238.1h5.2l5.5.8v-23.7M659.7 211.4l-4-2.9-6.3-1.5-7.3.4-10 3.2M653.8 220l-5.3-3.7h-6.3l-5.1 4.2 5.1 1 6.3.8z"/><path class="st4" d="M633.8 238.1h-5l-5.4.8M606.7 260.2l6.9-3.4 6.5-1.1 4.1.9 4.2-.9 6.4 1.1 6.9 3.4-6.4 6.3-7.1 2.8-4 .5-4.1-.5-7-2.8z"/><path class="st4" d="m606.7 260.2 3.6.3 10-.8 3.9.5 4-.5 9.9.8 3.6-.3"/><path class="st4" d="m606.7 260.2 3.6.3 10 2.1 3.9.8 4-.8 9.9-2.1 3.6-.3"/><circle id="rightTop0" cx="604.5" cy="177.4" r=".8"/><circle id="rightTop1" cx="591.9" cy="186.9" r=".8"/></g></svg>