<svg version="1.1" id="Layer_1" xmlns="http://www.w3.org/2000/svg" x="0" y="0" width="1000" height="1000" style="enable-background:new 0 0 1000 1000" xml:space="preserve"><g id="illustration"><path style="fill:#60504b" d="M523.3 868v46.8c0 48.8 55.4 50.3 55.4 4.5v-51.8l-55.4.5z"/><path style="fill:#fff" d="M535.7 889.3h30.6v4.4h-30.6zM535.7 897.7h30.6v4.4h-30.6zM535.7 906.2h30.6v4.4h-30.6z"/><path style="fill:#60504b" d="M420 868v46.8c0 48.8 55.4 50.3 55.4 4.5v-51.8l-55.4.5z"/><path style="fill:#3d527f" d="M394.4 493.8v384h99.7V531.7H514v346.1h91.7v-384H394.4z"/><path style="fill:#fff" d="M432.4 889.3H463v4.4h-30.6zM432.4 897.7H463v4.4h-30.6zM432.4 906.2H463v4.4h-30.6z"/><path style="fill:#abd1d5" d="M376.9 509c0-47.3 6-116.9 31.1-167.4 8.4-16.8 18.9-31.5 32-42.5 15.7-13.2 35.3-21.2 59.4-21.2 26.1 0 46.9 9.2 63.4 24.3 10.3 9.4 19 21.2 26.2 34.4 27.5 50.4 34.5 122.5 34.5 172.4H376.9z"/><path style="fill:none" d="M616.8 509.6H384"/><ellipse style="fill:#fff" cx="500.9" cy="304.3" rx="22" ry="16.3"/><path style="fill:#f3af9d" d="m843.8 326.2 17-6.8s6.1 5.5 13 11.2-4.7 18.4-15.3 10.6c-10.7-7.8-14.7-15-14.7-15z"/><path style="fill:#99afb1" d="m285.8 267.1 3 56.8c58.9.3 93.5-2.3 119.3 17.7l48.7-50.2c-54.3-26.7-115-27.7-171-24.3zM545.7 290.4l43.3 53.2c27-16.2 67.7-16.3 126.6-16.7v-56.8c-56-3.4-99.2-10.4-169.9 20.3z"/><path style="fill:#f3af9d" d="M291 273.7c-47.7 2.7-123.1 8.9-160.2 14.2-37.1 5.3-40.1 40.1 5.3 39.5s95.2-3.5 159.7-12.1l-4.8-41.6z"/><path style="fill:#f3af9d" d="m155.6 326.2-17-6.8s-6.1 5.5-13 11.2c-6.9 5.7 4.7 18.4 15.3 10.6 10.7-7.8 14.7-15 14.7-15zM709.7 318.3c64.5 8.6 113.3 11.5 158.7 12.1s42.4-34.2 5.3-39.5c-37.1-5.3-114.5-11.5-162.2-14.2l-1.8 41.6zM489.5 211.9h20.9s4.3 67.3 5.7 90.8c-2.1 9.7-9.1 11.3-15.5 11.1-8.2-.2-15.9-4.7-17.1-12.5l6-89.4z"/><path style="fill:#dd9b8e" d="M489.5 211.9h20.9c1.9 19-21.6 89.4-26.8 89.4l5.9-89.4z"/><path style="fill:#72605a" d="M499 113c-27 0-89 8-56 64 24.8 42.1 88 44 110 3s-4-67-54-67z"/><circle style="fill:#df7977" cx="560.2" cy="182.8" r="12.1"/><circle style="fill:#df7977" cx="437.6" cy="182.8" r="12.1"/><ellipse style="fill:#f3af9d" cx="499.8" cy="177.4" rx="57" ry="57.6"/><path id="rightMiddleLip_2_" d="M487.5 209.6c.3 0 .5.3.5.5s-.3.5-.5.5c-.3 0-.5-.3-.5-.5s.3-.5.5-.5z"/><circle id="upperLipBottomMid_1_" cx="499.3" cy="209.9" r=".5"/><circle id="rightUpperLipBottom1_1_" cx="496.8" cy="209.6" r=".5"/><path id="leftMiddleLip_2_" d="M511.1 209.6c.3 0 .5.3.5.5s-.3.5-.5.5-.5-.3-.5-.5.2-.5.5-.5z"/><circle id="leftUpperLipBottom1_1_" cx="501.8" cy="209.6" r=".5"/><path style="fill:#df7977;stroke:#df7977;stroke-width:2px;stroke-miterlimit:10" d="M488 210.1s7.7-.1 11.3-.1 11.9-.1 11.9-.1-6.9 2.6-11.9 2.6c-5.1 0-11.3-2.4-11.3-2.4z"/><circle id="lowerLipTopMid_2_" cx="499.3" cy="211.9" r=".5"/><circle id="rightLowerLipTop0_2_" cx="496.8" cy="211.4" r=".5"/><circle id="leftLowerLipTop0_2_" cx="501.8" cy="211.4" r=".5"/><ellipse style="fill:#df7977" cx="464.1" cy="196.5" rx="7.8" ry="6.2"/><ellipse style="fill:#2c323a" cx="464" cy="180.6" rx="3.6" ry="5.8"/><circle id="rightEye0_1_" cx="468.6" cy="160.2" r=".8"/><circle id="rightEye1_1_" cx="473.8" cy="156.5" r=".8"/><circle id="rightEye5_1_" cx="473.8" cy="162.5" r=".8"/><circle id="rightEye2_1_" cx="480.1" cy="156.5" r=".8"/><circle id="rightEye3_1_" cx="485.3" cy="160.7" r=".8"/><circle id="rightEye4_1_" cx="480.1" cy="161.7" r=".8"/><ellipse style="fill:#2c323a" cx="532.8" cy="179.6" rx="3.6" ry="5.8"/><ellipse style="fill:#df7977" cx="533.2" cy="196.5" rx="7.8" ry="6.2"/><circle id="leftEye0_1_" cx="528.2" cy="160.2" r=".8"/><circle id="leftEye1_1_" cx="523" cy="156.5" r=".8"/><circle id="leftEye5_1_" cx="523" cy="162.5" r=".8"/><circle id="leftEye2_1_" cx="516.7" cy="156.5" r=".8"/><circle id="leftEye3_1_" cx="511.5" cy="160.7" r=".8"/><circle id="leftEye4_1_" cx="516.7" cy="161.7" r=".8"/><path style="fill:#2c323a" d="M518.8 159.9c10.7-5 14.2-5 19.2.7-5-.7-5.7 2.8-19.2-.7z"/><circle id="leftBrow1_1_" cx="530.1" cy="148.7" r=".8"/><circle id="leftBrow4_1_" cx="506.5" cy="150.8" r=".8"/><circle id="leftBrow3_1_" cx="516.5" cy="147.6" r=".8"/><circle id="leftBrow0_1_" cx="534.1" cy="151.6" r=".8"/><circle id="leftBrow2_1_" cx="523.8" cy="147.2" r=".8"/><path style="fill:#2c323a" d="M478 159.9c-10.7-5-14.2-5-19.2.7 5-.7 5.7 2.8 19.2-.7z"/><circle id="rightBrow1_1_" cx="466.4" cy="148.3" r=".8"/><circle id="rightBrow4_1_" cx="489.7" cy="151.3" r=".8"/><circle id="rightBrow3_1_" cx="479.9" cy="147.3" r=".8"/><circle id="rightBrow0_1_" cx="462.4" cy="152" r=".8"/><circle id="rightBrow2_1_" cx="472.6" cy="147.3" r=".8"/><path style="fill:#72605a" d="M456 138c1.9 7.7 62.3 20.7 82-3 10-12 9-22 4-25-4.4-2.6-9-6-22 6-1-9 1-15-16-17-27.8-3.3-52.4 21-48 39z"/><path style="fill:#2c323a;stroke:#2c323a;stroke-width:2px;stroke-miterlimit:10" d="M496.4 185.8c-1.2 0-4.6 1.6-5.8 5.2-.2 1.2.6 5.8 6 4.1-.1-1-4.7-1.1-4.5-3.7.3-1.8 2-1.8 4.3-5.6z"/><circle id="nose1_1_" cx="497.6" cy="161.2" r=".8"/><circle id="nose0_1_" cx="497.6" cy="155.4" r=".8"/><circle id="nose3_1_" cx="497.6" cy="173.8" r=".8"/><circle id="rightNose0_1_" cx="486.9" cy="178.3" r=".8"/><circle id="rightNose1_1_" cx="492.1" cy="178.3" r=".8"/><circle id="nose2_1_" cx="497.6" cy="166.7" r=".8"/><circle id="nose4_1_" cx="497.6" cy="179.1" r=".8"/><circle id="leftNose0_1_" cx="508" cy="178.3" r=".8"/><circle id="leftNose1_1_" cx="503.2" cy="178.3" r=".8"/></g><g id="skeleton_1_"><circle id="rightShoulder" cx="392.8" cy="294.3" r="8.2"/><circle id="rightElbow" cx="289.3" cy="294.4" r="8.2"/><circle id="rightWrist" transform="scale(.99997) rotate(-5.655 125.9 300.8)" cx="125.9" cy="300.8" r="8.2"/><circle id="rightHip" cx="443.1" cy="510.1" r="8.2"/><circle id="rightKnee" cx="449.5" cy="670.3" r="8.2"/><circle id="rightAnkle" cx="449.5" cy="878.3" r="8.2"/><circle id="leftShoulder" cx="605.7" cy="294.3" r="8.2"/><circle id="leftElbow" cx="710.1" cy="294" r="8.2"/><circle id="leftWrist" cx="873.5" cy="300.3" r="8.2"/><circle id="leftHip" cx="559.5" cy="509.3" r="8.2"/><circle id="leftKnee" cx="559.5" cy="670.3" r="8.2"/><circle id="leftAnkle" cx="559.5" cy="878.3" r="8.2"/><path style="fill:none;stroke:#000;stroke-miterlimit:10" d="M392.7 294.6 443 510.4l116.4-.8 46.2-215zM391.7 294.6H289l-163.3 6.3M607.1 294.2h103.2l163.3 6.4M443 510.4l6.4 160.2v208M559.4 509.6v369"/><circle id="rightEye0" cx="468.6" cy="160.2" r=".8"/><circle id="rightBrow1" cx="466.4" cy="148.3" r=".8"/><circle id="rightBrow4" cx="489.7" cy="151.3" r=".8"/><circle id="nose1" cx="497.6" cy="161.2" r=".8"/><circle id="rightBrow3" cx="479.9" cy="147.3" r=".8"/><circle id="rightEye1" cx="473.8" cy="156.5" r=".8"/><circle id="rightBrow0" cx="462.4" cy="152" r=".8"/><circle id="rightBrow2" cx="472.6" cy="147.3" r=".8"/><circle id="rightEye5" cx="473.8" cy="162.5" r=".8"/><circle id="rightEye2" cx="480.1" cy="156.5" r=".8"/><circle id="rightEye3" cx="485.3" cy="160.7" r=".8"/><circle id="nose0" cx="497.6" cy="155.4" r=".8"/><circle id="nose3" cx="497.6" cy="173.8" r=".8"/><circle id="rightNose0" cx="486.9" cy="178.3" r=".8"/><circle id="rightMouthCorner" cx="480.9" cy="200.4" r=".8"/><circle id="rightNose1" cx="492.1" cy="178.3" r=".8"/><circle id="rightUpperLipTop0" cx="487.8" cy="197" r=".8"/><circle id="nose2" cx="497.6" cy="166.7" r=".8"/><circle id="nose4" cx="497.6" cy="179.1" r=".8"/><circle id="upperLipTopMid" cx="498.4" cy="196.8" r=".8"/><circle id="rightUpperLipTop1" cx="494.3" cy="195.9" r=".8"/><path id="rightMiddleLip" d="M484.5 199.9c.4 0 .8.4.8.8s-.4.8-.8.8-.8-.4-.8-.8.4-.8.8-.8z"/><circle id="lowerLipBottomMid" cx="498.4" cy="210" r=".8"/><circle id="upperLipBottomMid" cx="498.4" cy="200.4" r=".8"/><circle id="lowerLipTopMid" cx="498.4" cy="203.5" r=".8"/><circle id="rightUpperLipBottom1" cx="494.5" cy="199.9" r=".8"/><circle id="rightLowerLipTop0" cx="494.5" cy="202.8" r=".8"/><circle id="rightLowerLipBottom1" cx="494.3" cy="209.5" r=".8"/><circle id="rightLowerLipBottom0" cx="487.3" cy="206.7" r=".8"/><circle id="rightEye4" cx="480.1" cy="161.7" r=".8"/><circle id="jawMid" cx="498.4" cy="235.8" r=".8"/><circle id="rightJaw7" cx="483.4" cy="232.6" r=".8"/><circle id="rightJaw6" cx="473.4" cy="225.9" r=".8"/><circle id="rightJaw5" cx="461.8" cy="213.4" r=".8"/><circle id="rightJaw4" cx="455" cy="193.4" r=".8"/><circle id="rightJaw3" cx="454.2" cy="171.7" r=".8"/><circle id="rightJaw2" cx="454.2" cy="162.2" r=".8"/><circle id="rightJaw1" cx="455" cy="150.5" r=".8"/><circle id="rightJaw0" cx="457.5" cy="141.2" r=".8"/><circle id="topMid" cx="498.6" cy="115.1" r=".8"/><circle id="leftTop0" cx="518.3" cy="117.6" r=".8"/><circle id="leftTop1" cx="530.9" cy="127.1" r=".8"/><circle id="leftEye0" cx="528.2" cy="160.2" r=".8"/><circle id="leftBrow1" cx="530.1" cy="148.7" r=".8"/><circle id="leftBrow4" cx="506.5" cy="150.8" r=".8"/><circle id="leftBrow3" cx="516.5" cy="147.6" r=".8"/><circle id="leftEye1" cx="523" cy="156.5" r=".8"/><circle id="leftBrow0" cx="534.1" cy="151.6" r=".8"/><circle id="leftBrow2" cx="523.8" cy="147.2" r=".8"/><circle id="leftEye5" cx="523" cy="162.5" r=".8"/><circle id="leftEye2" cx="516.7" cy="156.5" r=".8"/><circle id="leftEye3" cx="511.5" cy="160.7" r=".8"/><circle id="leftNose0" cx="508" cy="178.3" r=".8"/><circle id="leftMouthCorner" cx="515.9" cy="200.4" r=".8"/><circle id="leftNose1" cx="503.2" cy="178.3" r=".8"/><circle id="leftUpperLipTop0" cx="509" cy="197" r=".8"/><circle id="leftUpperLipTop1" cx="502.6" cy="195.9" r=".8"/><path id="leftMiddleLip" d="M512.3 199.9c.4 0 .8.4.8.8s-.4.8-.8.8-.8-.4-.8-.8.4-.8.8-.8z"/><circle id="leftUpperLipBottom1" cx="502.4" cy="199.9" r=".8"/><circle id="leftLowerLipTop0" cx="502.4" cy="202.8" r=".8"/><circle id="leftLowerLipBottom1" cx="502.6" cy="209.5" r=".8"/><circle id="leftLowerLipBottom0" cx="509.5" cy="206.7" r=".8"/><circle id="leftEye4" cx="516.7" cy="161.7" r=".8"/><circle id="leftJaw7" cx="513.2" cy="233" r=".8"/><circle id="leftJaw6" cx="523.2" cy="226.3" r=".8"/><circle id="leftJaw5" cx="534.8" cy="213.7" r=".8"/><circle id="leftJaw4" cx="541.6" cy="193.7" r=".8"/><circle id="leftJaw3" cx="542.4" cy="172.1" r=".8"/><circle id="leftJaw2" cx="542.4" cy="162.5" r=".8"/><circle id="leftJaw1" cx="541.6" cy="150.8" r=".8"/><circle id="leftJaw0" cx="539.1" cy="141.6" r=".8"/><path style="fill:none;stroke:#000;stroke-miterlimit:10" d="m498.4 115.1-19.8 2.5-12.5 9.5-8.6 14.1-2.5 9.3-.8 11.7v9.5l.8 21.7 6.8 20 11.6 12.5 10 6.7 15 3.2 14.8-2.8 10-6.7 11.6-12.6 6.8-20 .8-21.6v-9.6l-.8-11.7-2.5-9.2-8.2-14.5-12.6-9.5-19.9-2.5"/><path style="fill:none;stroke:#000;stroke-miterlimit:10" d="m462.4 152 4-3.7 6.2-1h7.3l9.8 4M468.6 160.2l5.2-3.7h6.3l5.2 4.2-5.2 1-6.3.8zM486.9 178.3h5.2l5.5.8v-23.7M533.9 151.6l-4-2.9-6.3-1.5-7.3.4-10 3.2M528 160.2l-5.3-3.7h-6.3l-5.1 4.2 5.1 1 6.3.8zM508 178.3h-5l-5.4.8M480.9 200.4l6.9-3.4 6.5-1.1 4.1.9 4.2-.9 6.4 1.1 6.9 3.4-6.4 6.3-7.1 2.8-4 .5-4.1-.5-7-2.8z"/><path style="fill:none;stroke:#000;stroke-miterlimit:10" d="m480.9 200.4 3.6.3 10-.8 3.9.5 4-.5 9.9.8 3.6-.3"/><path style="fill:none;stroke:#000;stroke-miterlimit:10" d="m480.9 200.4 3.6.3 10 2.1 3.9.8 4-.8 9.9-2.1 3.6-.3"/><circle id="rightTop0" cx="478.7" cy="117.6" r=".8"/><circle id="rightTop1" cx="466.1" cy="127.1" r=".8"/></g></svg>