<svg version="1.1" id="Layer_1" xmlns="http://www.w3.org/2000/svg" x="0" y="0" width="1200" height="1200" style="enable-background:new 0 0 1200 1200" xml:space="preserve"><g id="illustration_1_"><path style="fill:#60504b" d="M647.9 923.2V970c0 48.8 55.4 50.3 55.4 4.5v-51.8l-55.4.5z"/><path style="fill:#fff" d="M660.3 944.5h30.6v4.4h-30.6zM660.3 952.9h30.6v4.4h-30.6zM660.3 961.4h30.6v4.4h-30.6z"/><path style="fill:#60504b" d="M544.6 923.2V970c0 48.8 55.4 50.3 55.4 4.5v-51.8l-55.4.5z"/><path style="fill:#b1c9c3" d="M518.9 549v384h92.7V586.9h25.9V933h92.7V549H518.9z"/><path style="fill:#fff" d="M557 944.5h30.6v4.4H557zM557 952.9h30.6v4.4H557zM557 961.4h30.6v4.4H557z"/><path style="fill:#60504b" d="M675 319.9c-27.8-13.5-68.3-15.8-101.3-.1-5.1-10.8-14-45.8-13.1-80.4 1.1-40.5 15.5-80.5 65.3-80.4 47.8 0 61.8 39.1 62.5 79.7 0 33.1-13.4 81.2-13.4 81.2z"/><circle style="fill:#df7977" cx="686.2" cy="233.8" r="12.1"/><circle style="fill:#df7977" cx="563.6" cy="233.8" r="12.1"/><circle id="jawMid_2_" cx="625.5" cy="284.1" r=".8"/><circle id="rightJaw7_2_" cx="614.6" cy="282.1" r=".8"/><circle id="leftJaw7_2_" cx="636.4" cy="282.1" r=".8"/><circle id="rightJaw3_2_" cx="580.3" cy="226.6" r=".8"/><circle id="rightJaw2_2_" cx="580.3" cy="217.1" r=".8"/><circle id="leftJaw3_2_" cx="668.5" cy="227" r=".8"/><circle id="leftJaw2_2_" cx="668.5" cy="217.4" r=".8"/><circle id="topMid_2_" cx="624.7" cy="166" r=".8"/><circle id="leftTop0_2_" cx="642.4" cy="168.5" r=".8"/><circle id="rightTop0_2_" cx="606.8" cy="168.5" r=".8"/><path style="fill:#60504b" d="M651.6 162.2c1.3-3.6 2.1-7.4 2.5-11.2 2.6 3.1 3.8 7.4 3.2 11.4-.1.7-.3 1.5-.7 2.1-.7.9-1.9 1.2-3 1.4-1.8.4-3.6.8-5.5 1 1.6-1.4 2.8-2.7 3.5-4.7z"/><path style="fill:#60504b" d="M650.5 166.7c5.8-.4 10.8-5.7 11-11.5 2.3 1 3.4 3.9 2.7 6.3-.7 2.4-2.9 4.2-5.3 4.9-2.4.7-5 .4-7.4-.3"/><path style="fill:#bf4c68" d="M501.5 564.2c-1.3-73.2 11.7-128.9 32.3-167.4 12.6-23.6 28-40.7 44.8-51.6 14.7-9.5 30.5-14.1 46.2-13.9 15.6.2 31.3 5.2 45.9 14.8 16.5 10.9 31.8 27.8 44.3 50.7 21.3 38.8 34.7 94.8 33.1 167.4H501.5z"/><path style="fill:none" d="M741.4 564.8H508.6"/><ellipse style="fill:#fff" cx="625.4" cy="351.3" rx="22" ry="16.3"/><path style="fill:#f3af9d" d="M614.2 265.7h20.9s4.3 61.7 5.7 85.2c-2.1 9.7-9.1 11.3-15.5 11.1-8.2-.2-15.9-4.7-17.1-12.5l6-83.8z"/><path style="fill:#dd9b8e" d="M614.2 265.7h20.9c1.9 19-21.7 83.8-26.9 83.8l6-83.8z"/><ellipse style="fill:#f3af9d" cx="625.2" cy="228.3" rx="56.4" ry="57.6"/><circle id="jawMid_1_" cx="625.5" cy="284.1" r=".8"/><circle id="rightJaw7_1_" cx="614.6" cy="282.1" r=".8"/><circle id="leftJaw7_1_" cx="636.4" cy="282.1" r=".8"/><circle id="rightJaw3_1_" cx="580.3" cy="226.6" r=".8"/><circle id="rightJaw2_1_" cx="580.3" cy="217.1" r=".8"/><circle id="leftJaw3_1_" cx="668.5" cy="227" r=".8"/><circle id="leftJaw2_1_" cx="668.5" cy="217.4" r=".8"/><circle id="topMid_3_" cx="624.7" cy="166" r=".8"/><circle id="leftTop0_3_" cx="642.4" cy="168.5" r=".8"/><circle id="rightTop0_3_" cx="606.8" cy="168.5" r=".8"/><path style="fill:#2c323a" d="M578.7 221.9c3.1-6.1 13.1-6.7 21.1-6.1.7 2.3.7 3.8-.1 3.7-3.1-.1-10.2-3.9-21 2.4z"/><circle id="rightBrow1_1_" cx="592.5" cy="203.2" r=".8"/><circle id="rightBrow4_1_" cx="615.8" cy="206.2" r=".8"/><circle id="rightBrow3_1_" cx="606" cy="202.2" r=".8"/><circle id="rightBrow0_1_" cx="588.5" cy="206.9" r=".8"/><circle id="rightBrow2_1_" cx="598.7" cy="202.2" r=".8"/><path style="fill:#2c323a" d="M666.7 220.8c-7.5-3.4-8.8-2.2-19-1-.3-.8-.5-1.7-.1-4 6 .5 16-2.3 21.1 6.1-.7-.4-1.3-.8-2-1.1z"/><circle id="leftBrow1_1_" cx="656.2" cy="203.6" r=".8"/><circle id="leftBrow4_1_" cx="632.6" cy="205.7" r=".8"/><circle id="leftBrow3_1_" cx="642.6" cy="202.5" r=".8"/><circle id="leftBrow0_1_" cx="660.2" cy="206.5" r=".8"/><circle id="leftBrow2_1_" cx="649.9" cy="202.1" r=".8"/><ellipse style="fill:#df7977" cx="590.1" cy="247.5" rx="7.8" ry="6.2"/><ellipse style="fill:#2c323a" cx="593" cy="231.6" rx="3.6" ry="5.8"/><circle id="rightEye0_1_" cx="594.7" cy="215.1" r=".8"/><circle id="rightEye1_1_" cx="599.9" cy="211.4" r=".8"/><circle id="rightEye5_1_" cx="599.9" cy="217.4" r=".8"/><circle id="rightEye2_1_" cx="606.2" cy="211.4" r=".8"/><circle id="rightEye3_1_" cx="611.4" cy="215.6" r=".8"/><circle id="rightEye4_1_" cx="606.2" cy="216.6" r=".8"/><ellipse style="fill:#2c323a" cx="654.8" cy="231.6" rx="3.6" ry="5.8"/><ellipse style="fill:#df7977" cx="659.2" cy="247.5" rx="7.8" ry="6.2"/><circle id="leftEye0_1_" cx="654.3" cy="215.1" r=".8"/><circle id="leftEye1_1_" cx="649.1" cy="211.4" r=".8"/><circle id="leftEye5_1_" cx="649.1" cy="217.4" r=".8"/><circle id="leftEye2_1_" cx="642.8" cy="211.4" r=".8"/><circle id="leftEye3_1_" cx="637.6" cy="215.6" r=".8"/><circle id="leftEye4_1_" cx="642.8" cy="216.6" r=".8"/><path id="rightMiddleLip_2_" d="M610.8 254.6c.4 0 .8.4.8.8s-.4.8-.8.8-.8-.4-.8-.8.4-.8.8-.8z"/><circle id="upperLipBottomMid_1_" cx="624.5" cy="255.1" r=".8"/><circle id="rightUpperLipBottom1_1_" cx="620.6" cy="254.6" r=".8"/><path id="leftMiddleLip_2_" d="M638.2 254.6c.4 0 .8.4.8.8s-.4.8-.8.8-.8-.4-.8-.8.4-.8.8-.8z"/><circle id="leftUpperLipBottom1_1_" cx="628.4" cy="254.6" r=".8"/><path style="fill:#2c323a;stroke:#2c323a;stroke-width:2px;stroke-miterlimit:10" d="M611.6 255.4s7.4-.2 12.9-.2 13.9-.1 13.9-.1-6.1 4-13.9 4c-7.9 0-12.9-3.7-12.9-3.7z"/><circle id="lowerLipTopMid_2_" cx="624.5" cy="258.1" r=".8"/><circle id="rightLowerLipTop0_2_" cx="620.6" cy="257.4" r=".8"/><circle id="leftLowerLipTop0_2_" cx="628.4" cy="257.4" r=".8"/><path style="fill:#60504b" d="M636.7 182.2c-.2 8.5-8.4 18.8-25.9 23.3-2.1.5 9-8.2 13.7-18.5-19.7 23.6-29.8 27.3-63.8 25.6 5.1-22.7 26.3-53.3 63.3-53.7s57.1 21.6 65.1 56.3c-21.9-5.1-39.6-3-52.4-33z"/><circle id="jawMid_3_" cx="625.5" cy="284.1" r=".8"/><circle id="rightJaw7_3_" cx="614.6" cy="282.1" r=".8"/><circle id="leftJaw7_3_" cx="636.4" cy="282.1" r=".8"/><circle id="rightJaw3_3_" cx="580.3" cy="226.6" r=".8"/><circle id="rightJaw2_3_" cx="580.3" cy="217.1" r=".8"/><circle id="leftJaw3_3_" cx="668.5" cy="227" r=".8"/><circle id="leftJaw2_3_" cx="668.5" cy="217.4" r=".8"/><circle id="topMid_1_" cx="624.7" cy="166" r=".8"/><circle id="leftTop0_1_" cx="642.4" cy="168.5" r=".8"/><circle id="rightTop0_1_" cx="606.8" cy="168.5" r=".8"/><path style="fill:#f3af9d" d="m968.4 381.4 17-6.8s6.1 5.5 13 11.2-4.7 18.4-15.3 10.6c-10.7-7.8-14.7-15-14.7-15z"/><path style="fill:#e094a3" d="m410.4 322.3 3 56.8c58.9.3 93.5-2.3 119.3 17.7l48.7-50.2c-54.3-26.7-115-27.7-171-24.3zM670.3 345.6l43.3 53.2c27-16.2 67.7-16.3 126.6-16.7v-56.8c-56-3.4-99.2-10.4-169.9 20.3z"/><path style="fill:#f3af9d" d="M415.6 328.9c-47.7 2.7-123.1 8.9-160.2 14.2-37.1 5.3-40.1 40.1 5.3 39.5s95.2-3.5 159.7-12.1l-4.8-41.6z"/><path style="fill:#f3af9d" d="m280.2 381.4-17-6.8s-6.1 5.5-13 11.2 4.7 18.4 15.3 10.6c10.7-7.8 14.7-15 14.7-15zM834.3 373.5c64.5 8.6 113.3 11.5 158.7 12.1s42.4-34.2 5.3-39.5c-37.1-5.3-114.5-11.5-162.2-14.2l-1.8 41.6z"/><circle id="nose1_1_" cx="623.7" cy="216.1" r=".8"/><circle id="nose0_1_" cx="623.7" cy="210.3" r=".8"/><circle id="nose3_1_" cx="623.7" cy="228.7" r=".8"/><circle id="rightNose0_1_" cx="613" cy="233.2" r=".8"/><circle id="rightNose1_1_" cx="618.2" cy="233.2" r=".8"/><circle id="nose2_1_" cx="623.7" cy="221.6" r=".8"/><circle id="nose4_1_" cx="623.7" cy="234" r=".8"/><circle id="leftNose0_1_" cx="634.1" cy="233.2" r=".8"/><circle id="leftNose1_1_" cx="629.3" cy="233.2" r=".8"/><path style="fill:#2c323a;stroke:#2c323a;stroke-width:2px;stroke-miterlimit:10" d="M622.4 232.8c-1.2 0-4.6 1.6-5.8 5.2-.2 1.2.6 5.8 6 4.1-.1-1-4.7-1.1-4.5-3.7.3-1.8 2-1.8 4.3-5.6z"/></g><g id="skeleton_1_"><path style="fill:none;stroke:#000;stroke-miterlimit:10" d="m518.8 349.5 50.3 215.8 116.4-.8 46.2-215zM517.8 349.5H415.1l-163.3 6.3M733.2 349.1h103.2l163.3 6.4M569.1 565.3l6.4 160.2v208M685.5 564.5v369M624.5 170l-19.8 2.5-12.5 9.5-8.6 14.1-2.5 9.3-.8 11.7v9.5l.8 21.7 6.8 20 11.6 12.5 10 6.7 15 3.2 14.8-2.8 10-6.7 11.6-12.6 6.8-20 .8-21.6v-9.6l-.8-11.7-2.5-9.2L657 182l-12.6-9.5-19.9-2.5"/><path style="fill:none;stroke:#000;stroke-miterlimit:10" d="m588.5 206.9 4-3.7 6.2-1h7.3l9.8 4M594.7 215.1l5.2-3.7h6.3l5.2 4.2-5.2 1-6.3.8zM613 233.2h5.2l5.5.8v-23.7M660 206.5l-4-2.9-6.3-1.5-7.3.4-10 3.2M654.1 215.1l-5.3-3.7h-6.3l-5.1 4.2 5.1 1 6.3.8zM634.1 233.2h-5l-5.4.8M607 255.3l6.9-3.4 6.5-1.1 4.1.9 4.2-.9 6.4 1.1 6.9 3.4-6.4 6.3-7.1 2.8-4 .5-4.1-.5-7-2.8z"/><path style="fill:none;stroke:#000;stroke-miterlimit:10" d="m607 255.3 3.6.3 10-.8 3.9.5 4-.5 9.9.8 3.6-.3"/><path style="fill:none;stroke:#000;stroke-miterlimit:10" d="m607 255.3 3.6.3 10 2.1 3.9.8 4-.8 9.9-2.1 3.6-.3"/><circle id="rightShoulder" cx="518.9" cy="349.2" r="8.2"/><circle id="rightElbow" cx="415.4" cy="349.3" r="8.2"/><circle id="rightWrist" cx="252" cy="355.7" r="8.2"/><circle id="rightHip" cx="569.2" cy="565" r="8.2"/><circle id="rightKnee" cx="575.6" cy="725.2" r="8.2"/><circle id="rightAnkle" cx="575.6" cy="933.2" r="8.2"/><circle id="leftElbow" cx="836.2" cy="348.9" r="8.2"/><circle id="leftWrist" cx="999.6" cy="355.2" r="8.2"/><circle id="leftHip" cx="685.6" cy="564.2" r="8.2"/><circle id="leftKnee" cx="685.6" cy="725.2" r="8.2"/><circle id="leftAnkle" cx="685.6" cy="933.2" r="8.2"/><circle id="rightEye0" cx="594.7" cy="215.1" r=".8"/><circle id="rightBrow1" cx="592.5" cy="203.2" r=".8"/><circle id="rightBrow4" cx="615.8" cy="206.2" r=".8"/><circle id="nose1" cx="623.7" cy="216.1" r=".8"/><circle id="rightBrow3" cx="606" cy="202.2" r=".8"/><circle id="rightEye1" cx="599.9" cy="211.4" r=".8"/><circle id="rightBrow0" cx="588.5" cy="206.9" r=".8"/><circle id="rightBrow2" cx="598.7" cy="202.2" r=".8"/><circle id="rightEye5" cx="599.9" cy="217.4" r=".8"/><circle id="rightEye2" cx="606.2" cy="211.4" r=".8"/><circle id="rightEye3" cx="611.4" cy="215.6" r=".8"/><circle id="nose0" cx="623.7" cy="210.3" r=".8"/><circle id="nose3" cx="623.7" cy="228.7" r=".8"/><circle id="rightNose0" cx="613" cy="233.2" r=".8"/><circle id="rightMouthCorner" cx="607" cy="255.3" r=".8"/><circle id="rightNose1" cx="618.2" cy="233.2" r=".8"/><circle id="rightUpperLipTop0" cx="613.9" cy="251.9" r=".8"/><circle id="nose2" cx="623.7" cy="221.6" r=".8"/><circle id="nose4" cx="623.7" cy="234" r=".8"/><circle id="upperLipTopMid" cx="624.5" cy="251.7" r=".8"/><circle id="rightUpperLipTop1" cx="620.4" cy="250.8" r=".8"/><path id="rightMiddleLip" d="M610.6 254.8c.4 0 .8.4.8.8s-.4.8-.8.8-.8-.4-.8-.8.4-.8.8-.8z"/><circle id="lowerLipBottomMid" cx="624.5" cy="264.9" r=".8"/><circle id="upperLipBottomMid" cx="624.5" cy="255.3" r=".8"/><circle id="lowerLipTopMid" cx="624.5" cy="258.4" r=".8"/><circle id="rightUpperLipBottom1" cx="620.6" cy="254.8" r=".8"/><circle id="rightLowerLipTop0" cx="620.6" cy="257.7" r=".8"/><circle id="rightLowerLipBottom1" cx="620.4" cy="264.4" r=".8"/><circle id="rightLowerLipBottom0" cx="613.4" cy="261.6" r=".8"/><circle id="rightEye4" cx="606.2" cy="216.6" r=".8"/><circle id="jawMid" cx="624.5" cy="290.7" r=".8"/><circle id="rightJaw7" cx="609.5" cy="287.5" r=".8"/><circle id="rightJaw6" cx="599.5" cy="280.8" r=".8"/><circle id="rightJaw5" cx="587.9" cy="268.3" r=".8"/><circle id="rightJaw4" cx="581.1" cy="248.3" r=".8"/><circle id="rightJaw3" cx="580.3" cy="226.6" r=".8"/><circle id="rightJaw2" cx="580.3" cy="217.1" r=".8"/><circle id="rightJaw1" cx="581.1" cy="205.4" r=".8"/><circle id="rightJaw0" cx="583.6" cy="196.1" r=".8"/><circle id="topMid" cx="624.7" cy="170" r=".8"/><circle id="leftTop0" cx="644.4" cy="172.5" r=".8"/><circle id="leftTop1" cx="657" cy="182" r=".8"/><circle id="leftEye0" cx="654.3" cy="215.1" r=".8"/><circle id="leftBrow1" cx="656.2" cy="203.6" r=".8"/><circle id="leftBrow4" cx="632.6" cy="205.7" r=".8"/><circle id="leftBrow3" cx="642.6" cy="202.5" r=".8"/><circle id="leftEye1" cx="649.1" cy="211.4" r=".8"/><circle id="leftBrow0" cx="660.2" cy="206.5" r=".8"/><circle id="leftBrow2" cx="649.9" cy="202.1" r=".8"/><circle id="leftEye5" cx="649.1" cy="217.4" r=".8"/><circle id="leftEye2" cx="642.8" cy="211.4" r=".8"/><circle id="leftEye3" cx="637.6" cy="215.6" r=".8"/><circle id="leftNose0" cx="634.1" cy="233.2" r=".8"/><circle id="leftMouthCorner" cx="642" cy="255.3" r=".8"/><circle id="leftNose1" cx="629.3" cy="233.2" r=".8"/><circle id="leftUpperLipTop0" cx="635.1" cy="251.9" r=".8"/><circle id="leftUpperLipTop1" cx="628.7" cy="250.8" r=".8"/><path id="leftMiddleLip" d="M638.4 254.8c.4 0 .8.4.8.8s-.4.8-.8.8-.8-.4-.8-.8.4-.8.8-.8z"/><circle id="leftUpperLipBottom1" cx="628.5" cy="254.8" r=".8"/><circle id="leftLowerLipTop0" cx="628.5" cy="257.7" r=".8"/><circle id="leftLowerLipBottom1" cx="628.7" cy="264.4" r=".8"/><circle id="leftLowerLipBottom0" cx="635.6" cy="261.6" r=".8"/><circle id="leftEye4" cx="642.8" cy="216.6" r=".8"/><circle id="leftJaw7" cx="639.3" cy="287.9" r=".8"/><circle id="leftJaw6" cx="649.3" cy="281.2" r=".8"/><circle id="leftJaw5" cx="660.9" cy="268.6" r=".8"/><circle id="leftJaw4" cx="667.7" cy="248.6" r=".8"/><circle id="leftJaw3" cx="668.5" cy="227" r=".8"/><circle id="leftJaw2" cx="668.5" cy="217.4" r=".8"/><circle id="leftJaw1" cx="667.7" cy="205.7" r=".8"/><circle id="leftJaw0" cx="665.2" cy="196.5" r=".8"/><circle id="rightTop0" cx="604.8" cy="172.5" r=".8"/><circle id="rightTop1" cx="592.2" cy="182" r=".8"/><circle id="leftShoulder" cx="731.8" cy="349.2" r="8.2"/></g></svg>