<svg version="1.1" id="Layer_1" xmlns="http://www.w3.org/2000/svg" x="0" y="0" width="1200" height="1200" style="enable-background:new 0 0 1200 1200" xml:space="preserve"><style>.st0{fill:#4b1f09}.st1{fill:#ecf4e9}.st3{fill:#458761}.st5{fill:#ab7440}.st6{fill:#7e4b1d}.st7{fill:#d68184}.st9{fill:#fafcf9}.st10{fill:#4966b1}.st11{fill:#d8975b}.st14{fill:none;stroke:#000;stroke-miterlimit:10}</style><g id="illustration_1_"><circle class="st0" cx="838" cy="344.4" r="20"/><path class="st1" d="M632.4 323.9c-14.4-22.8 114-19.4 201.7-.9-2.1 10.6-5.8 26.5-6.4 40.1-65.5.9-180.4-15.7-195.3-39.2z"/><circle class="st0" cx="416.1" cy="344.4" r="20"/><path class="st1" d="M621.8 320.9c14.5-22.8-114.6-16.5-202.4 2 2.1 10.6 5.8 26.5 6.4 40.1 65.6 1 181.1-18.5 196-42.1z"/><path class="st0" d="M694.9 563.1c2.3 8.7-3.5 13.5-7.9 15-7.5 2.6-14.9.7-17.2-8s1.8-13.8 9.4-15.9c7.7-2 13.4.2 15.7 8.9zM558.6 563.1c-2.3 8.7 3.5 13.5 7.9 15 7.5 2.6 14.9.7 17.2-8s-1.8-13.8-9.4-15.9c-7.7-2-13.4.2-15.7 8.9z"/><path d="M681.7 502.9c13.1-11.7 21.1-27.7 21.1-45.2 0-6.2 3.1-17.1-2.8-17.8-27-3.1-40.6-5.3-75.4-5.3-35.4 0-30.1 1.3-71.5 6.6-5.5.7-2.4 10.8-2.4 16.5 0 17.6 8.1 33.5 21.2 45.3-2.4 5.3-4.5 11.4-6.1 18.1-3.2 13-3.9 25.2-2.4 33.6 1.1 6.3 4.6 7.1 8.1 8 3.1.8 7.4-.2 10.9-4.2 5.7-6.5 9.4-16 12.9-30.1.9-3.5 1.5-7 2.1-10.3 9 3.3 19 5.1 29.4 5.1 10.5 0 20.5-1.8 29.5-5.1.5 3.3 1.2 6.8 2.1 10.4 3.5 14.1 7.2 23.6 12.9 30.1 3.5 4 7.8 5 10.9 4.2 3.5-.9 7-1.7 8.1-8 1.5-8.4.8-20.5-2.4-33.6-1.7-6.8-3.8-13-6.2-18.3z" style="fill:#60625d"/><path class="st1" d="M599 316.1c6.7-3.2 15.1-5.5 23.4-5.9 2.6-.1 5.2-.1 7.7 0 9.7.5 18.6 2.7 24.2 6.3-11.5 20.6-41 20.3-55.3-.4z"/><path d="M622.9 310.2S598.7 424.8 600 469c6.9 4.2 45.1 3.8 52.7.3 6.7-43.2-20-153.1-23.4-159.1h-6.4z" style="fill:#9e2323"/><path class="st5" d="M542.2 176.3c3.3 10.4 14.9 10.5 27.8 6.4s22.2-10.9 18.9-21.3c-3.3-10.4-16.5-15.5-29.4-11.4s-20.7 15.9-17.3 26.3z"/><path class="st6" d="M545.1 165.1c1.7 5.3 9.9 4.6 19.3 1.6 9.4-3 16.5-7.2 14.8-12.4-1.7-5.3-10.7-7.1-20.1-4.1-9.4 2.9-15.7 9.6-14 14.9z"/><path class="st7" d="M549.4 173.7c2.2 7 9.8 6.5 18.5 3.7s15.2-6.7 13-13.7-11.1-10.5-19.8-7.7c-8.8 2.7-14 10.6-11.7 17.7z"/><path class="st5" d="M704.4 176.3c-3.3 10.4-14.9 10.5-27.8 6.4s-22.2-10.9-18.9-21.3c3.3-10.4 16.5-15.5 29.4-11.4 12.9 4.1 20.6 15.9 17.3 26.3z"/><path d="M719.1 257.9c0 39.5-42.6 54.2-95.2 54.2s-95.2-14.7-95.2-54.2 15.8-88.9 95.2-88.9c81.1.1 95.2 49.4 95.2 88.9z" style="fill:#d69655"/><path class="st5" d="M622.8 254.3c-46.3 29.2-26.3 45.1.8 45.1 27.7 0 48.8-19.5-.8-45.1z"/><path class="st6" d="M623.1 254.9c-35.4 22.3-20.2 39.1.5 39.1 21.2 0 37.4-19.5-.5-39.1z"/><path class="st0" d="M623.3 256.2c-24.9 15.7-14.2 32 .4 32 14.9-.1 26.3-18.2-.4-32z"/><path class="st0" d="M708.9 246c0 19.3-6.6 28.1-25 28.1-31 0-28.1-29.4-59.9-29.4-31.7 0-28.9 29.4-59.9 29.4-17.2 0-25-8.8-25-28.1 0-33.2 22.3-67.8 84.4-67.8s85.4 29.1 85.4 67.8z"/><ellipse class="st9" cx="679.1" cy="233.5" rx="17.8" ry="21.7"/><ellipse class="st10" cx="679.1" cy="233.5" rx="11.4" ry="13.8"/><path class="st11" d="M665.4 219.6c3.3-4.8 8.2-7.9 13.7-7.9 9.8 0 17.8 9.7 17.8 21.7 0 2.5-.3 4.9-1 7.1l-30.5-20.9z"/><circle id="leftEye0_1_" cx="654.3" cy="215.1" r=".8"/><circle id="leftEye1_1_" cx="649.1" cy="211.4" r=".8"/><circle id="leftEye5_1_" cx="649.1" cy="217.4" r=".8"/><circle id="leftEye2_1_" cx="642.8" cy="211.4" r=".8"/><circle id="leftEye3_1_" cx="637.6" cy="215.6" r=".8"/><circle id="leftEye4_1_" cx="642.8" cy="216.6" r=".8"/><ellipse class="st9" cx="571.7" cy="233.5" rx="17.8" ry="21.7"/><ellipse class="st10" cx="571.7" cy="233.5" rx="11.4" ry="13.8"/><path class="st11" d="M585.4 219.6c-3.3-4.8-8.2-7.9-13.7-7.9-9.8 0-17.8 9.7-17.8 21.7 0 2.5.3 4.9 1 7.1l30.5-20.9z"/><circle id="rightEye0_1_" cx="594.7" cy="215.1" r=".8"/><circle id="rightEye1_1_" cx="599.9" cy="211.4" r=".8"/><circle id="rightEye5_1_" cx="599.9" cy="217.4" r=".8"/><circle id="rightEye2_1_" cx="606.2" cy="211.4" r=".8"/><circle id="rightEye3_1_" cx="611.4" cy="215.6" r=".8"/><circle id="rightEye4_1_" cx="606.2" cy="216.6" r=".8"/><path class="st6" d="M701.5 165.1c-1.7 5.3-9.9 4.6-19.3 1.6-9.4-3-16.5-7.2-14.8-12.4 1.7-5.3 10.7-7.1 20.1-4.1 9.4 2.9 15.6 9.6 14 14.9z"/><path class="st7" d="M697.2 173.7c-2.2 7-9.8 6.5-18.5 3.7s-15.2-6.7-13-13.7 11.1-10.5 19.8-7.7c8.7 2.7 14 10.6 11.7 17.7z"/><path class="st3" d="M664.4 320.7c-3.1-1.6-6.3-3-9.6-4.1-.1 0-.3-.1-.4-.1 0 0 0 .1-.1.1-11.5 20.6-41 20.2-55.3-.5-2.8 1-5.4 2.1-7.9 3.4-47.1 23.9-49 100.6-46.2 139.2 39.4 19.8 123.3 16 161.1 2.5 5.6-57.8.7-118.2-41.6-140.5z"/><path d="M591.4 319.3c7.7 33.2 63 35.1 73 1.4l-10.1-4.1c-12.6 19-41.5 19.1-55.3-.5l-7.6 3.2z" style="fill:#326842"/><path d="M594.4 318.3c12.6 29.5 51.8 30.4 66 .4l-3.1-1.1c-13.1 25.1-47.5 23.6-60.8-.7l-2.1 1.4z" style="fill:#e5ca5a"/></g><g id="skeleton_1_"><circle id="rightShoulder" cx="572.3" cy="366.3" r="8.2"/><circle id="rightElbow" cx="489.5" cy="343.4" r="8.2"/><circle id="rightWrist" cx="393.8" cy="345.5" r="8.2"/><circle id="rightHip" cx="581.1" cy="564.1" r="8.2"/><circle id="rightKnee" cx="575.6" cy="725.2" r="8.2"/><circle id="rightAnkle" cx="575.6" cy="933.2" r="8.2"/><circle id="leftShoulder" cx="681.3" cy="366.4" r="8.2"/><circle id="leftElbow" cx="765.3" cy="342.3" r="8.2"/><circle id="leftWrist" cx="860.6" cy="344.5" r="8.2"/><circle id="leftHip" cx="673.1" cy="563.3" r="8.2"/><circle id="leftKnee" cx="685.6" cy="725.2" r="8.2"/><circle id="leftAnkle" cx="685.6" cy="933.2" r="8.2"/><path class="st14" d="m572.2 366.6 8.8 197.8 92-.8 8.2-196.9zM571.2 366.6l-82-23-95.6 2M682.7 366.3l82.8-23.8 95.2 2.3"/><path class="st14" d="m581 564.4-5.5 161.1v208M673 563.6l12.5 161.9v208"/><circle id="rightEye0" cx="594.7" cy="215.1" r=".8"/><circle id="rightBrow1" cx="592.5" cy="203.2" r=".8"/><circle id="rightBrow4" cx="615.8" cy="206.2" r=".8"/><circle id="nose1" cx="623.7" cy="216.1" r=".8"/><circle id="rightBrow3" cx="606" cy="202.2" r=".8"/><circle id="rightEye1" cx="599.9" cy="211.4" r=".8"/><circle id="rightBrow0" cx="588.5" cy="206.9" r=".8"/><circle id="rightBrow2" cx="598.7" cy="202.2" r=".8"/><circle id="rightEye5" cx="599.9" cy="217.4" r=".8"/><circle id="rightEye2" cx="606.2" cy="211.4" r=".8"/><circle id="rightEye3" cx="611.4" cy="215.6" r=".8"/><circle id="nose0" cx="623.7" cy="210.3" r=".8"/><circle id="nose3" cx="623.7" cy="228.7" r=".8"/><circle id="rightNose0" cx="613" cy="233.2" r=".8"/><circle id="rightMouthCorner" cx="607" cy="255.3" r=".8"/><circle id="rightNose1" cx="618.2" cy="233.2" r=".8"/><circle id="rightUpperLipTop0" cx="613.9" cy="251.9" r=".8"/><circle id="nose2" cx="623.7" cy="221.6" r=".8"/><circle id="nose4" cx="623.7" cy="234" r=".8"/><circle id="upperLipTopMid" cx="624.5" cy="251.7" r=".8"/><circle id="rightUpperLipTop1" cx="620.4" cy="250.8" r=".8"/><path id="rightMiddleLip" d="M610.6 254.8c.4 0 .8.4.8.8s-.4.8-.8.8-.8-.4-.8-.8.4-.8.8-.8z"/><circle id="lowerLipBottomMid" cx="624.5" cy="264.9" r=".8"/><circle id="upperLipBottomMid" cx="624.5" cy="255.3" r=".8"/><circle id="lowerLipTopMid" cx="624.5" cy="258.4" r=".8"/><circle id="rightUpperLipBottom1" cx="620.6" cy="254.8" r=".8"/><circle id="rightLowerLipTop0" cx="620.6" cy="257.7" r=".8"/><circle id="rightLowerLipBottom1" cx="620.4" cy="264.4" r=".8"/><circle id="rightLowerLipBottom0" cx="613.4" cy="261.6" r=".8"/><circle id="rightEye4" cx="606.2" cy="216.6" r=".8"/><circle id="jawMid" cx="624.5" cy="290.7" r=".8"/><circle id="rightJaw7" cx="609.5" cy="287.5" r=".8"/><circle id="rightJaw6" cx="599.5" cy="280.8" r=".8"/><circle id="rightJaw5" cx="587.9" cy="268.3" r=".8"/><circle id="rightJaw4" cx="581.1" cy="248.3" r=".8"/><circle id="rightJaw3" cx="580.3" cy="226.6" r=".8"/><circle id="rightJaw2" cx="580.3" cy="217.1" r=".8"/><circle id="rightJaw1" cx="581.1" cy="205.4" r=".8"/><circle id="rightJaw0" cx="583.6" cy="196.1" r=".8"/><circle id="topMid" cx="624.7" cy="170" r=".8"/><circle id="leftTop0" cx="644.4" cy="172.5" r=".8"/><circle id="leftTop1" cx="657" cy="182" r=".8"/><circle id="leftEye0" cx="654.3" cy="215.1" r=".8"/><circle id="leftBrow1" cx="656.2" cy="203.6" r=".8"/><circle id="leftBrow4" cx="632.6" cy="205.7" r=".8"/><circle id="leftBrow3" cx="642.6" cy="202.5" r=".8"/><circle id="leftEye1" cx="649.1" cy="211.4" r=".8"/><circle id="leftBrow0" cx="660.2" cy="206.5" r=".8"/><circle id="leftBrow2" cx="649.9" cy="202.1" r=".8"/><circle id="leftEye5" cx="649.1" cy="217.4" r=".8"/><circle id="leftEye2" cx="642.8" cy="211.4" r=".8"/><circle id="leftEye3" cx="637.6" cy="215.6" r=".8"/><circle id="leftNose0" cx="634.1" cy="233.2" r=".8"/><circle id="leftMouthCorner" cx="642" cy="255.3" r=".8"/><circle id="leftNose1" cx="629.3" cy="233.2" r=".8"/><circle id="leftUpperLipTop0" cx="635.1" cy="251.9" r=".8"/><circle id="leftUpperLipTop1" cx="628.7" cy="250.8" r=".8"/><path id="leftMiddleLip" d="M638.4 254.8c.4 0 .8.4.8.8s-.4.8-.8.8-.8-.4-.8-.8.4-.8.8-.8z"/><circle id="leftUpperLipBottom1" cx="628.5" cy="254.8" r=".8"/><circle id="leftLowerLipTop0" cx="628.5" cy="257.7" r=".8"/><circle id="leftLowerLipBottom1" cx="628.7" cy="264.4" r=".8"/><circle id="leftLowerLipBottom0" cx="635.6" cy="261.6" r=".8"/><circle id="leftEye4" cx="642.8" cy="216.6" r=".8"/><circle id="leftJaw7" cx="639.3" cy="287.9" r=".8"/><circle id="leftJaw6" cx="649.3" cy="281.2" r=".8"/><circle id="leftJaw5" cx="660.9" cy="268.6" r=".8"/><circle id="leftJaw4" cx="667.7" cy="248.6" r=".8"/><circle id="leftJaw3" cx="668.5" cy="227" r=".8"/><circle id="leftJaw2" cx="668.5" cy="217.4" r=".8"/><circle id="leftJaw1" cx="667.7" cy="205.7" r=".8"/><circle id="leftJaw0" cx="665.2" cy="196.5" r=".8"/><path class="st14" d="m624.5 170-19.8 2.5-12.5 9.5-8.6 14.1-2.5 9.3-.8 11.7v9.5l.8 21.7 6.8 20 11.6 12.5 10 6.7 15 3.2 14.8-2.8 10-6.7 11.6-12.6 6.8-20 .8-21.6v-9.6l-.8-11.7-2.5-9.2L657 182l-12.6-9.5-19.9-2.5"/><path class="st14" d="m588.5 206.9 4-3.7 6.2-1h7.3l9.8 4M594.7 215.1l5.2-3.7h6.3l5.2 4.2-5.2 1-6.3.8zM613 233.2h5.2l5.5.8v-23.7M660 206.5l-4-2.9-6.3-1.5-7.3.4-10 3.2M654.1 215.1l-5.3-3.7h-6.3l-5.1 4.2 5.1 1 6.3.8zM634.1 233.2h-5l-5.4.8M607 255.3l6.9-3.4 6.5-1.1 4.1.9 4.2-.9 6.4 1.1 6.9 3.4-6.4 6.3-7.1 2.8-4 .5-4.1-.5-7-2.8z"/><path class="st14" d="m607 255.3 3.6.3 10-.8 3.9.5 4-.5 9.9.8 3.6-.3"/><path class="st14" d="m607 255.3 3.6.3 10 2.1 3.9.8 4-.8 9.9-2.1 3.6-.3"/><circle id="rightTop0" cx="604.8" cy="172.5" r=".8"/><circle id="rightTop1" cx="592.2" cy="182" r=".8"/></g></svg>