<svg width="819" height="196" fill="none" xmlns="http://www.w3.org/2000/svg"><path d="M222.203 39.438h-53.156l-6.117.843-5.696 1.477-5.484 2.32-4.852 3.164-3.586 2.953-3.375 3.375-3.375 4.219-2.742 4.008-2.32 4.851-1.266 4.008-1.265 5.695-.422 5.485.422 5.062 1.265 5.696 2.321 6.117 3.375 5.273 4.007 4.641 4.43 3.586 4.219 2.531 4.219 1.899 5.062 1.265h25.945v-38.39" stroke="#7260AF" stroke-width="16.875"/><path d="m88.258 80.36 24.89 43.031 3.586 4.851 4.43 4.43 6.117 4.64 5.906 4.008 5.907 3.164 8.226 2.743 6.117 1.054 8.438.844h60.117" stroke="#7260AF" stroke-width="16.875"/><path d="m69.954 31 8.952 17.284-59.504 108.721-18.267.124L69.954 31ZM205.328 60.109h16.875v65.813h-16.875zM55.563 116.641h29.53l9.071 16.875H46.492l9.07-16.875ZM76.445 76.352h19.828l-15.187 8.437-4.64-8.438Z" fill="#7260AF"/><path d="m260.228 143 17.2-81h10.9l17.3 81h-10.7l-3.7-20.4h-16.5l-3.9 20.4h-10.6Zm16-28.5h13.5l-6.8-36.5-6.7 36.5Zm56.528 29.5c-5.066 0-9.133-1.067-12.2-3.2-3-2.2-5.2-5.367-6.6-9.5-1.333-4.133-2-9.1-2-14.9V89.3c0-5.933.6-10.967 1.8-15.1 1.267-4.2 3.467-7.4 6.6-9.6 3.2-2.2 7.634-3.3 13.3-3.3 5.067 0 9.134.867 12.2 2.6 3.134 1.667 5.4 4.267 6.8 7.8 1.4 3.467 2.1 7.867 2.1 13.2v3h-10.6v-2.5c0-3.533-.233-6.4-.7-8.6-.466-2.267-1.433-3.933-2.9-5-1.4-1.133-3.633-1.7-6.7-1.7-3.333 0-5.766.767-7.3 2.3-1.466 1.533-2.4 3.633-2.8 6.3-.333 2.6-.5 5.567-.5 8.9v30c0 3.867.267 7.1.8 9.7.6 2.6 1.7 4.533 3.3 5.8 1.6 1.267 3.867 1.9 6.8 1.9 2.934 0 5.2-.7 6.8-2.1 1.6-1.4 2.7-3.467 3.3-6.2.6-2.733.9-6.133.9-10.2v-5.6h-10.3v-8h20.5V143h-7.1l-1.1-9.3c-1.066 3-2.733 5.467-5 7.4-2.266 1.933-5.4 2.9-9.4 2.9Zm34.816-1V62h11.1v81h-11.1Zm66.156.9c-4.667 0-8.567-1-11.7-3-3.067-2-5.4-4.767-7-8.3-1.6-3.533-2.533-7.633-2.8-12.3l10-2.7c.2 2.867.633 5.633 1.3 8.3.733 2.667 1.9 4.867 3.5 6.6 1.6 1.667 3.833 2.5 6.7 2.5 2.933 0 5.133-.8 6.6-2.4 1.533-1.667 2.3-4.033 2.3-7.1 0-3.667-.833-6.6-2.5-8.8-1.667-2.267-3.767-4.533-6.3-6.8l-13.6-12c-2.667-2.333-4.633-4.867-5.9-7.6-1.267-2.8-1.9-6.233-1.9-10.3 0-5.933 1.7-10.533 5.1-13.8 3.4-3.267 8.033-4.9 13.9-4.9 3.2 0 6 .433 8.4 1.3 2.467.8 4.5 2.067 6.1 3.8 1.667 1.733 2.967 3.933 3.9 6.6 1 2.6 1.667 5.667 2 9.2l-9.6 2.6c-.2-2.667-.6-5.1-1.2-7.3-.6-2.267-1.667-4.067-3.2-5.4-1.467-1.4-3.6-2.1-6.4-2.1-2.8 0-5 .767-6.6 2.3-1.533 1.467-2.3 3.667-2.3 6.6 0 2.467.4 4.5 1.2 6.1.867 1.6 2.233 3.233 4.1 4.9l13.7 12c3.067 2.667 5.767 5.867 8.1 9.6 2.333 3.667 3.5 8.033 3.5 13.1 0 4-.833 7.467-2.5 10.4-1.667 2.867-3.967 5.067-6.9 6.6-2.867 1.533-6.2 2.3-10 2.3Zm48.466 0c-5.734 0-10.2-1.2-13.4-3.6-3.134-2.4-5.334-5.633-6.6-9.7-1.2-4.067-1.8-8.6-1.8-13.6V88.4c0-5.467.6-10.233 1.8-14.3 1.266-4.067 3.466-7.2 6.6-9.4 3.2-2.267 7.666-3.4 13.4-3.4 5.066 0 9.066.933 12 2.8 3 1.867 5.133 4.533 6.4 8 1.333 3.467 2 7.633 2 12.5V91h-10.7v-5.7c0-3-.167-5.633-.5-7.9-.267-2.333-1.067-4.133-2.4-5.4-1.334-1.267-3.567-1.9-6.7-1.9-3.2 0-5.534.7-7 2.1-1.467 1.333-2.434 3.267-2.9 5.8-.4 2.467-.6 5.367-.6 8.7v32.1c0 4.067.333 7.3 1 9.7.666 2.333 1.766 4 3.3 5 1.533 1 3.6 1.5 6.2 1.5 3.066 0 5.266-.667 6.6-2 1.333-1.4 2.166-3.3 2.5-5.7.333-2.4.5-5.2.5-8.4v-6h10.7v6c0 4.933-.6 9.3-1.8 13.1-1.2 3.733-3.267 6.667-6.2 8.8-2.934 2.067-7.067 3.1-12.4 3.1Zm31.165-.9V62h11.3v35h20.8V62h11.3v81h-11.3v-37.9h-20.8V143h-11.3Zm76.754.9c-5.466 0-9.833-1.067-13.1-3.2-3.266-2.133-5.6-5.167-7-9.1-1.4-4-2.1-8.667-2.1-14V86.9c0-5.333.7-9.9 2.1-13.7 1.467-3.867 3.8-6.8 7-8.8 3.267-2.067 7.634-3.1 13.1-3.1 5.467 0 9.8 1.033 13 3.1 3.2 2.067 5.5 5 6.9 8.8 1.467 3.8 2.2 8.367 2.2 13.7v30.8c0 5.267-.733 9.867-2.2 13.8-1.4 3.933-3.7 7-6.9 9.2-3.2 2.133-7.533 3.2-13 3.2Zm0-8.9c3 0 5.267-.6 6.8-1.8 1.534-1.267 2.567-3 3.1-5.2.534-2.267.8-4.9.8-7.9V84.6c0-3-.266-5.567-.8-7.7-.533-2.2-1.566-3.867-3.1-5-1.533-1.2-3.8-1.8-6.8-1.8s-5.3.6-6.9 1.8c-1.533 1.133-2.566 2.8-3.1 5-.533 2.133-.8 4.7-.8 7.7v35.5c0 3 .267 5.633.8 7.9.534 2.2 1.567 3.933 3.1 5.2 1.6 1.2 3.9 1.8 6.9 1.8Zm53.907 8.9c-5.467 0-9.834-1.067-13.1-3.2-3.267-2.133-5.6-5.167-7-9.1-1.4-4-2.1-8.667-2.1-14V86.9c0-5.333.7-9.9 2.1-13.7 1.466-3.867 3.8-6.8 7-8.8 3.266-2.067 7.633-3.1 13.1-3.1 5.466 0 9.8 1.033 13 3.1 3.2 2.067 5.5 5 6.9 8.8 1.466 3.8 2.2 8.367 2.2 13.7v30.8c0 5.267-.734 9.867-2.2 13.8-1.4 3.933-3.7 7-6.9 9.2-3.2 2.133-7.534 3.2-13 3.2Zm0-8.9c3 0 5.266-.6 6.8-1.8 1.533-1.267 2.566-3 3.1-5.2.533-2.267.8-4.9.8-7.9V84.6c0-3-.267-5.567-.8-7.7-.534-2.2-1.567-3.867-3.1-5-1.534-1.2-3.8-1.8-6.8-1.8s-5.3.6-6.9 1.8c-1.534 1.133-2.567 2.8-3.1 5-.534 2.133-.8 4.7-.8 7.7v35.5c0 3 .266 5.633.8 7.9.533 2.2 1.566 3.933 3.1 5.2 1.6 1.2 3.9 1.8 6.9 1.8Zm33.206 8V62h11.3v72.9h20.7v8.1h-32Z" fill="#353535"/></svg>