<svg viewBox="0 0 720 196" fill="none" xmlns="http://www.w3.org/2000/svg">
<path d="M222.203 39.4375H169.047L162.93 40.2812L157.234 41.7578L151.75 44.0781L146.898 47.2422L143.312 50.1953L139.937 53.5703L136.562 57.789L133.82 61.7969L131.5 66.6484L130.234 70.6562L128.969 76.3515L128.547 81.8359L128.969 86.8984L130.234 92.5937L132.555 98.7109L135.93 103.984L139.937 108.625L144.367 112.211L148.586 114.742L152.805 116.641L157.867 117.906H162.93H183.812V79.5156" stroke="#7260AF" stroke-width="16.875"></path>
<path d="M88.2578 80.3594L113.148 123.391L116.734 128.242L121.164 132.672L127.281 137.312L133.187 141.32L139.094 144.484L147.32 147.227L153.437 148.281L161.875 149.125H221.992" stroke="#7260AF" stroke-width="16.875"></path>
<path d="M69.9536 31L78.9064 48.2838L19.4023 157.005L1.13505 157.129L69.9536 31Z" fill="#7260AF"></path>
<rect x="205.328" y="60.1094" width="16.875" height="65.8125" fill="#7260AF"></rect>
<path d="M55.5625 116.641H85.0937L94.1641 133.516H46.4922L55.5625 116.641Z" fill="#7260AF"></path>
<path d="M76.4453 76.3515H96.2734L81.0859 84.789L76.4453 76.3515Z" fill="#7260AF"></path>
<path d="M260.228 143L277.428 62H288.328L305.628 143H294.928L291.228 122.6H274.728L270.828 143H260.228ZM276.228 114.5H289.728L282.928 78L276.228 114.5ZM332.756 144C327.69 144 323.623 142.933 320.556 140.8C317.556 138.6 315.356 135.433 313.956 131.3C312.623 127.167 311.956 122.2 311.956 116.4V89.3C311.956 83.3667 312.556 78.3333 313.756 74.2C315.023 70 317.223 66.8 320.356 64.6C323.556 62.4 327.99 61.3 333.656 61.3C338.723 61.3 342.79 62.1667 345.856 63.9C348.99 65.5667 351.256 68.1667 352.656 71.7C354.056 75.1667 354.756 79.5667 354.756 84.9V87.9H344.156V85.4C344.156 81.8667 343.923 79 343.456 76.8C342.99 74.5333 342.023 72.8667 340.556 71.8C339.156 70.6667 336.923 70.1 333.856 70.1C330.523 70.1 328.09 70.8667 326.556 72.4C325.09 73.9333 324.156 76.0333 323.756 78.7C323.423 81.3 323.256 84.2667 323.256 87.6V117.6C323.256 121.467 323.523 124.7 324.056 127.3C324.656 129.9 325.756 131.833 327.356 133.1C328.956 134.367 331.223 135 334.156 135C337.09 135 339.356 134.3 340.956 132.9C342.556 131.5 343.656 129.433 344.256 126.7C344.856 123.967 345.156 120.567 345.156 116.5V110.9H334.856V102.9H355.356V143H348.256L347.156 133.7C346.09 136.7 344.423 139.167 342.156 141.1C339.89 143.033 336.756 144 332.756 144ZM367.572 143V62H378.672V143H367.572ZM433.728 143.9C429.061 143.9 425.161 142.9 422.028 140.9C418.961 138.9 416.628 136.133 415.028 132.6C413.428 129.067 412.495 124.967 412.228 120.3L422.228 117.6C422.428 120.467 422.861 123.233 423.528 125.9C424.261 128.567 425.428 130.767 427.028 132.5C428.628 134.167 430.861 135 433.728 135C436.661 135 438.861 134.2 440.328 132.6C441.861 130.933 442.628 128.567 442.628 125.5C442.628 121.833 441.795 118.9 440.128 116.7C438.461 114.433 436.361 112.167 433.828 109.9L420.228 97.9C417.561 95.5667 415.595 93.0333 414.328 90.3C413.061 87.5 412.428 84.0667 412.428 80C412.428 74.0667 414.128 69.4667 417.528 66.2C420.928 62.9333 425.561 61.3 431.428 61.3C434.628 61.3 437.428 61.7333 439.828 62.6C442.295 63.4 444.328 64.6667 445.928 66.4C447.595 68.1333 448.895 70.3333 449.828 73C450.828 75.6 451.495 78.6667 451.828 82.2L442.228 84.8C442.028 82.1333 441.628 79.7 441.028 77.5C440.428 75.2333 439.361 73.4333 437.828 72.1C436.361 70.7 434.228 70 431.428 70C428.628 70 426.428 70.7667 424.828 72.3C423.295 73.7667 422.528 75.9667 422.528 78.9C422.528 81.3667 422.928 83.4 423.728 85C424.595 86.6 425.961 88.2333 427.828 89.9L441.528 101.9C444.595 104.567 447.295 107.767 449.628 111.5C451.961 115.167 453.128 119.533 453.128 124.6C453.128 128.6 452.295 132.067 450.628 135C448.961 137.867 446.661 140.067 443.728 141.6C440.861 143.133 437.528 143.9 433.728 143.9ZM482.194 143.9C476.46 143.9 471.994 142.7 468.794 140.3C465.66 137.9 463.46 134.667 462.194 130.6C460.994 126.533 460.394 122 460.394 117V88.4C460.394 82.9333 460.994 78.1667 462.194 74.1C463.46 70.0333 465.66 66.9 468.794 64.7C471.994 62.4333 476.46 61.3 482.194 61.3C487.26 61.3 491.26 62.2333 494.194 64.1C497.194 65.9667 499.327 68.6333 500.594 72.1C501.927 75.5667 502.594 79.7333 502.594 84.6V91H491.894V85.3C491.894 82.3 491.727 79.6667 491.394 77.4C491.127 75.0667 490.327 73.2667 488.994 72C487.66 70.7333 485.427 70.1 482.294 70.1C479.094 70.1 476.76 70.8 475.294 72.2C473.827 73.5333 472.86 75.4667 472.394 78C471.994 80.4667 471.794 83.3667 471.794 86.7V118.8C471.794 122.867 472.127 126.1 472.794 128.5C473.46 130.833 474.56 132.5 476.094 133.5C477.627 134.5 479.694 135 482.294 135C485.36 135 487.56 134.333 488.894 133C490.227 131.6 491.06 129.7 491.394 127.3C491.727 124.9 491.894 122.1 491.894 118.9V112.9H502.594V118.9C502.594 123.833 501.994 128.2 500.794 132C499.594 135.733 497.527 138.667 494.594 140.8C491.66 142.867 487.527 143.9 482.194 143.9ZM513.359 143V62H524.659V97H545.459V62H556.759V143H545.459V105.1H524.659V143H513.359ZM590.113 143.9C584.647 143.9 580.28 142.833 577.013 140.7C573.747 138.567 571.413 135.533 570.013 131.6C568.613 127.6 567.913 122.933 567.913 117.6V86.9C567.913 81.5667 568.613 77 570.013 73.2C571.48 69.3333 573.813 66.4 577.013 64.4C580.28 62.3333 584.647 61.3 590.113 61.3C595.58 61.3 599.913 62.3333 603.113 64.4C606.313 66.4667 608.613 69.4 610.013 73.2C611.48 77 612.213 81.5667 612.213 86.9V117.7C612.213 122.967 611.48 127.567 610.013 131.5C608.613 135.433 606.313 138.5 603.113 140.7C599.913 142.833 595.58 143.9 590.113 143.9ZM590.113 135C593.113 135 595.38 134.4 596.913 133.2C598.447 131.933 599.48 130.2 600.013 128C600.547 125.733 600.813 123.1 600.813 120.1V84.6C600.813 81.6 600.547 79.0333 600.013 76.9C599.48 74.7 598.447 73.0333 596.913 71.9C595.38 70.7 593.113 70.1 590.113 70.1C587.113 70.1 584.813 70.7 583.213 71.9C581.68 73.0333 580.647 74.7 580.113 76.9C579.58 79.0333 579.313 81.6 579.313 84.6V120.1C579.313 123.1 579.58 125.733 580.113 128C580.647 130.2 581.68 131.933 583.213 133.2C584.813 134.4 587.113 135 590.113 135ZM644.02 143.9C638.553 143.9 634.186 142.833 630.92 140.7C627.653 138.567 625.32 135.533 623.92 131.6C622.52 127.6 621.82 122.933 621.82 117.6V86.9C621.82 81.5667 622.52 77 623.92 73.2C625.386 69.3333 627.72 66.4 630.92 64.4C634.186 62.3333 638.553 61.3 644.02 61.3C649.486 61.3 653.82 62.3333 657.02 64.4C660.22 66.4667 662.52 69.4 663.92 73.2C665.386 77 666.12 81.5667 666.12 86.9V117.7C666.12 122.967 665.386 127.567 663.92 131.5C662.52 135.433 660.22 138.5 657.02 140.7C653.82 142.833 649.486 143.9 644.02 143.9ZM644.02 135C647.02 135 649.286 134.4 650.82 133.2C652.353 131.933 653.386 130.2 653.92 128C654.453 125.733 654.72 123.1 654.72 120.1V84.6C654.72 81.6 654.453 79.0333 653.92 76.9C653.386 74.7 652.353 73.0333 650.82 71.9C649.286 70.7 647.02 70.1 644.02 70.1C641.02 70.1 638.72 70.7 637.12 71.9C635.586 73.0333 634.553 74.7 634.02 76.9C633.486 79.0333 633.22 81.6 633.22 84.6V120.1C633.22 123.1 633.486 125.733 634.02 128C634.553 130.2 635.586 131.933 637.12 133.2C638.72 134.4 641.02 135 644.02 135ZM677.226 143V62H688.526V134.9H709.226V143H677.226Z" fill="#353535"></path>
</svg>
